SplineFontDB: 3.2
FontName: ExploreSans
FullName: Explore Sans Regular
FamilyName: Explore Sans
Weight: Regular
Copyright: Copyright (c) 2024, Bastien
UComments: "2024-12-25: Created with FontForge (http://fontforge.org)"
Version: 001.000
ItalicAngle: 0
UnderlinePosition: -102
UnderlineWidth: 64
Ascent: 800
Descent: 224
InvalidEm: 0
LayerCount: 2
Layer: 0 0 "Arri+AOgA-re" 1
Layer: 1 0 "Avant" 0
XUID: [1021 760 1580941675 4706664]
StyleMap: 0x0040
FSType: 0
OS2Version: 0
OS2_WeightWidthSlopeOnly: 0
OS2_UseTypoMetrics: 1
CreationTime: 1735138560
ModificationTime: 1745354641
PfmFamily: 33
TTFWeight: 400
TTFWidth: 5
LineGap: 192
VLineGap: 0
OS2TypoAscent: 800
OS2TypoAOffset: 0
OS2TypoDescent: -224
OS2TypoDOffset: 0
OS2TypoLinegap: 192
OS2WinAscent: 800
OS2WinAOffset: 0
OS2WinDescent: 224
OS2WinDOffset: 0
HheadAscent: 800
HheadAOffset: 0
HheadDescent: 224
HheadDOffset: 0
OS2FamilyClass: 2049
OS2Vendor: 'PfEd'
Lookup: 258 0 0 "Kern Latin" { "Kern Latin-Latin" [153,0,2] } ['kern' ('DFLT' <'dflt' > 'latn' <'dflt' > ) ]
Lookup: 260 0 0 "Anchors Latin" { "Anchors Latin 1"  } ['mark' ('DFLT' <'dflt' > 'latn' <'dflt' > ) ]
MarkAttachClasses: 1
DEI: 91125
KernClass2: 28 18 "Kern Latin-Latin"
 52 A Z Agrave Aacute Acircumflex Atilde Adieresis Aring
 46 O Q Ograve Oacute Ocircumflex Otilde Odieresis
 1 C
 1 D
 5 H M N
 3 F P
 75 I i Igrave Iacute Icircumflex Idieresis igrave iacute icircumflex idieresis
 39 J U Ugrave Uacute Ucircumflex Udieresis
 3 K R
 1 L
 1 S
 10 T Y Yacute
 3 V W
 50 a agrave aacute acircumflex atilde adieresis aring
 3 b p
 43 c d e q egrave eacute ecircumflex edieresis
 3 f t
 50 h m n u ntilde ugrave uacute ucircumflex udieresis
 1 g
 26 k v w x y yacute ydieresis
 44 o ograve oacute ocircumflex otilde odieresis
 1 l
 1 r
 3 s z
 9 ampersand
 3 one
 5 slash
 50 A Agrave Aacute Acircumflex Atilde Adieresis Aring
 48 C O Q Ograve Oacute Ocircumflex Otilde Odieresis
 37 I Igrave Iacute Icircumflex Idieresis
 1 S
 14 T V W Y Yacute

StartChar: A
Encoding: 65 65 0
Width: 619
VWidth: 1048
Flags: HW
HStem: 0 21G<24 103.006 516.672 595> 184 62<155 496> 688 20G<267.91 375.384>
VStem: 523 72<0 22.4555>
AnchorPoint: "AccentCenter" 321 880 basechar 0
LayerCount: 2
Fore
SplineSet
155 246 m 1
 496 246 l 1
 496 184 l 1
 155 184 l 1
 155 246 l 1
369 708 m 5
 595 0 l 1
 523 0 l 1
 299 708 l 5
 369 708 l 5
275 708 m 5
 344 708 l 5
 96 0 l 1
 24 0 l 1
 275 708 l 5
EndSplineSet
Colour: ff0000
EndChar

StartChar: B
Encoding: 66 66 1
Width: 633
VWidth: 1048
Flags: HW
HStem: 0 61<160 444.347> 347 62<160 428.66> 647 61<160 425.044>
VStem: 88 72<61 347 409 647> 472 74<450.956 604.68> 503 74<120.479 284.946>
LayerCount: 2
Fore
SplineSet
160 647 m 5xf8
 160 409 l 1
 339 409 l 2
 422 409 472 441 472 531 c 0
 472 620 410 647 333 647 c 6
 160 647 l 5xf8
160 347 m 1
 160 61 l 1
 356 61 l 2
 439 61 503 105 503 201 c 0xf4
 503 301 436 347 333 347 c 2
 160 347 l 1
88 0 m 1
 88 708 l 5
 335 708 l 6
 459 708 546 646 546 535 c 0xf8
 546 440 485 397 436 377 c 1
 519 360 577 293 577 196 c 0
 577 56 472 0 356 0 c 2
 88 0 l 1
EndSplineSet
EndChar

StartChar: C
Encoding: 67 67 2
Width: 630
VWidth: 1048
Flags: HW
HStem: -7 61<249.408 449.717> 655 61<247.262 450.049>
VStem: 56 74<199.028 510.335>
LayerCount: 2
Fore
SplineSet
130 355 m 1
 130 159 207 54 343 54 c 0
 430 54 488 82 542 166 c 1
 589 127 l 1
 534 46 454 -7 342 -7 c 0
 169 -7 56 121 56 355 c 0
 56 589 178 716 342 716 c 0
 438 716 538 682 589 569 c 1
 535 540 l 1
 487 640 415 655 343 655 c 0
 205 655 130 549 130 355 c 1
EndSplineSet
EndChar

StartChar: D
Encoding: 68 68 3
Width: 652
VWidth: 1048
Flags: HW
HStem: 0 61<160 393.942> 647 61<160 395.304>
VStem: 539 73<215.9 492.957>
LayerCount: 2
Fore
SplineSet
160 708 m 5
 287 708 l 5
 501 708 612 566 612 361 c 0
 612 138 500 0 283 0 c 1
 160 0 l 1
 160 61 l 1
 285 61 l 1
 425 61 539 138 539 361 c 0
 539 566 424 647 287 647 c 5
 160 647 l 5
 160 708 l 5
88 708 m 5
 160 708 l 5
 160 0 l 1
 88 0 l 1
 88 708 l 5
EndSplineSet
EndChar

StartChar: E
Encoding: 69 69 4
Width: 574
VWidth: 1048
Flags: HW
HStem: 0 61<160 534> 334 66<159 456> 647 61<160 534>
VStem: 159 1<334 400>
AnchorPoint: "AccentCenter" 308 880 basechar 0
LayerCount: 2
Fore
SplineSet
159 400 m 1
 456 400 l 1
 456 334 l 1
 159 334 l 1
 159 400 l 1
160 61 m 1
 534 61 l 1
 534 0 l 1
 160 0 l 1
 160 61 l 1
160 708 m 5
 534 708 l 5
 534 647 l 5
 160 647 l 5
 160 708 l 5
88 708 m 5
 160 708 l 5
 160 0 l 1
 88 0 l 1
 88 708 l 5
EndSplineSet
EndChar

StartChar: F
Encoding: 70 70 5
Width: 576
VWidth: 1048
Flags: HW
HStem: 0 21G<88 161> 338 66<161 466> 647 61<161 544>
VStem: 88 73<0 338 404 647>
LayerCount: 2
Fore
SplineSet
161 404 m 1
 466 404 l 1
 466 338 l 1
 161 338 l 1
 161 404 l 1
161 708 m 5
 544 708 l 5
 544 647 l 5
 161 647 l 5
 161 708 l 5
88 708 m 5
 161 708 l 5
 161 0 l 1
 88 0 l 1
 88 708 l 5
EndSplineSet
Colour: ff0000
EndChar

StartChar: G
Encoding: 71 71 6
Width: 664
VWidth: 1048
Flags: HW
HStem: -7 60<241.201 443.533> 320 62<326 517> 655 61<250.855 455.306>
VStem: 56 74<196.27 505.315> 517 75<115.565 320>
LayerCount: 2
Fore
SplineSet
592 138 m 5
 534 38 452 -7 331 -7 c 1
 203 -7 56 68 56 358 c 1
 56 592 182 716 346 716 c 1
 435 716 510 692 576 611 c 1
 531 570 l 1
 480 634 419 655 347 655 c 1
 209 655 132 552 130 358 c 1
 130 120 225 53 333 53 c 1
 418 53 484 82 517 143 c 1
 517 320 l 1
 326 320 l 1
 326 382 l 1
 592 382 l 1
 592 138 l 5
EndSplineSet
EndChar

StartChar: H
Encoding: 72 72 7
Width: 659
VWidth: 1048
Flags: HW
HStem: 0 21G<88 160 499 571> 346 66<125 534> 688 20G<88 160 499 571>
VStem: 88 72<0 346 412 708> 125 35<346 412> 499 72<0 346 412 708> 499 35<346 412>
LayerCount: 2
Fore
SplineSet
125 412 m 1xea
 534 412 l 1
 534 346 l 1
 125 346 l 1
 125 412 l 1xea
499 708 m 5xe4
 571 708 l 5
 571 0 l 1
 499 0 l 1
 499 708 l 5xe4
88 708 m 5xf0
 160 708 l 5
 160 0 l 1
 88 0 l 1
 88 708 l 5xf0
EndSplineSet
EndChar

StartChar: I
Encoding: 73 73 8
Width: 248
VWidth: 1048
Flags: HW
HStem: 0 21G<88 160> 688 20G<88 160>
VStem: 88 72<0 708>
AnchorPoint: "AccentCenter" 124 880 basechar 0
LayerCount: 2
Fore
SplineSet
88 708 m 5
 160 708 l 5
 160 0 l 1
 88 0 l 1
 88 708 l 5
EndSplineSet
EndChar

StartChar: J
Encoding: 74 74 9
Width: 479
VWidth: 1048
Flags: HW
HStem: -7 60<127.873 277.665> 688 20G<327 399>
VStem: 327 72<106.288 708>
LayerCount: 2
Fore
SplineSet
399 708 m 5
 399 210 l 1
 399 64 308 -7 202 -7 c 1
 142 -7 67 11 24 105 c 1
 82 135 l 1
 108 70 160 53 203 53 c 3
 284 53 327 102 327 207 c 1
 327 708 l 5
 399 708 l 5
EndSplineSet
EndChar

StartChar: K
Encoding: 75 75 10
Width: 581
VWidth: 1048
Flags: HW
HStem: 0 21G<88 160 436.26 549> 688 20G<88 160 434.543 548>
VStem: 88 72<0 708>
LayerCount: 2
Fore
SplineSet
549 0 m 1
 453 0 l 1
 150 362 l 1
 193 401 l 1
 549 0 l 1
193 319 m 1
 150 362 l 1
 452 708 l 5
 548 708 l 5
 193 319 l 1
88 708 m 5
 160 708 l 5
 160 0 l 1
 88 0 l 1
 88 708 l 5
EndSplineSet
Colour: ff0000
EndChar

StartChar: L
Encoding: 76 76 11
Width: 518
VWidth: 1048
Flags: HW
HStem: 0 61<152 478> 688 20G<80 152>
VStem: 80 72<61 708>
LayerCount: 2
Fore
SplineSet
152 61 m 1
 478 61 l 1
 478 0 l 1
 152 0 l 1
 152 61 l 1
80 708 m 5
 152 708 l 5
 152 0 l 1
 80 0 l 1
 80 708 l 5
EndSplineSet
EndChar

StartChar: M
Encoding: 77 77 12
Width: 741
VWidth: 1048
Flags: HW
HStem: 0 21G<88 160 581 653> 688 20G<88 180.893 560.412 653>
VStem: 88 72<0 579> 154 6<579 708> 581 72<0 579> 581 7<579 708>
LayerCount: 2
Fore
SplineSet
588 708 m 21xc4
 588 579 l 5
 418 184 l 1
 344 184 l 1
 569 708 l 5
 588 708 l 21xc4
154 708 m 29xd0
 172 708 l 5
 405 184 l 1
 332 184 l 1
 154 579 l 5
 154 708 l 29xd0
581 708 m 5xc4
 653 708 l 5
 653 0 l 1
 581 0 l 1xc8
 581 708 l 5xc4
88 708 m 5xe0
 160 708 l 5xd0
 160 0 l 1
 88 0 l 1
 88 708 l 5xe0
EndSplineSet
EndChar

StartChar: N
Encoding: 78 78 13
Width: 667
VWidth: 1048
Flags: HW
HStem: 0 21G<88 160 485.533 579> 688 20G<88 181.597 507 579>
VStem: 88 72<0 600> 153 7<600 708> 507 72<113 708> 507 8<0 113>
LayerCount: 2
Fore
SplineSet
153 708 m 5xd4
 170 708 l 5
 515 113 l 1
 515 0 l 1
 497 0 l 1
 153 600 l 5
 153 708 l 5xd4
507 708 m 5xc8
 579 708 l 5
 579 0 l 1xc8
 507 0 l 1xc4
 507 708 l 5xc8
88 708 m 5xe0
 160 708 l 5xd0
 160 0 l 1
 88 0 l 1
 88 708 l 5xe0
EndSplineSet
EndChar

StartChar: O
Encoding: 79 79 14
Width: 662
VWidth: 1048
Flags: HW
HStem: -8 61<235.845 430.711> 653 62<234.955 431.953>
VStem: 32 72<206.476 498.828> 557 73<202.92 507.258>
AnchorPoint: "AccentCenter" 334 880 basechar 0
LayerCount: 2
Fore
SplineSet
128 354 m 4
 128 136 210 53 334 53 c 4
 458 53 533 136 533 354 c 4
 533 572 458 653 334 653 c 4
 210 653 128 572 128 354 c 4
56 354 m 4
 56 626 194 715 334 715 c 4
 474 715 606 624 606 357 c 4
 606 89 484 -8 334 -8 c 4
 182 -8 56 93 56 354 c 4
EndSplineSet
EndChar

StartChar: P
Encoding: 80 80 15
Width: 605
VWidth: 1048
Flags: HW
HStem: 0 21G<88 155> 263 61<155 393.606> 647 61<155 401.45>
VStem: 88 67<0 263 324 647> 477 72<406.174 570.815>
LayerCount: 2
Fore
SplineSet
155 708 m 5
 155 708 253 708 327 708 c 4
 458 708 549 609 549 491 c 0
 549 364 452 263 309 263 c 9
 155 263 l 1
 155 324 l 1
 309 324 l 17
 412 324 477 401 477 491 c 0
 477 577 411 647 327 647 c 13
 155 647 l 5
 155 708 l 5
88 708 m 5
 155 708 l 5
 155 0 l 1
 88 0 l 1
 88 708 l 5
EndSplineSet
Colour: ff0000
EndChar

StartChar: Q
Encoding: 81 81 16
Width: 662
VWidth: 1048
Flags: HW
HStem: -184 60<416.239 555> -8 8<301 365> 653 62<235.937 424.971>
VStem: 53 72<195.135 514.85> 530 73<187.248 518.386>
AnchorPoint: "AccentCenter" 359 880 basechar 0
LayerCount: 2
Fore
SplineSet
125 354 m 0
 125 136 207 53 331 53 c 0
 455 53 530 136 530 354 c 0
 530 572 455 653 331 653 c 0
 207 653 125 572 125 354 c 0
53 354 m 0
 53 626 191 715 331 715 c 0
 471 715 603 624 603 357 c 0
 603 89 481 -8 331 -8 c 0
 179 -8 53 93 53 354 c 0
365 0 m 29
 365 0 372 -124 483 -124 c 4
 525 -124 555 -124 555 -124 c 5
 577 -165 l 5
 577 -165 543 -184 475 -184 c 4
 360 -184 301 -80 301 0 c 13
 365 0 l 29
EndSplineSet
EndChar

StartChar: R
Encoding: 82 82 17
Width: 607
VWidth: 1048
Flags: HW
HStem: 0 21G<88 160 474.007 567> 291 61<160 400.588> 647 61<160 406.815>
VStem: 88 72<0 291 352 647> 476 74<421.473 580.341>
LayerCount: 2
Fore
SplineSet
319 302 m 5
 378 302 l 5
 418 272 l 5
 567 0 l 5
 485 0 l 5
 319 302 l 5
160 708 m 1
 160 708 253 708 327 708 c 0
 458 708 550 621 550 503 c 0
 550 376 451 291 308 291 c 1
 160 291 l 1
 160 352 l 1
 308 352 l 1
 411 352 476 413 476 503 c 0
 476 589 411 647 327 647 c 1
 160 647 l 1
 160 708 l 1
88 708 m 1
 160 708 l 1
 160 0 l 1
 88 0 l 1
 88 708 l 1
EndSplineSet
Colour: ff0000
EndChar

StartChar: S
Encoding: 83 83 18
Width: 594
VWidth: 1048
Flags: HW
HStem: -7 59<190.311 402.258> 656 60<204.897 410.174>
VStem: 71 72<449.235 599.634> 464 72<107.416 260.122>
LayerCount: 2
Fore
SplineSet
100.365234375 169.450195312 m 5
 132.37109375 99.4091796875 189 52 299 52 c 1
 418 52 464 108 464 182 c 1
 464 270 416 299 322 318 c 1
 254 332 l 0
 138 353.344 71 426 71 530 c 1
 71 635 161 716 313 716 c 1
 380.187324341 716 473 694 527 602 c 1
 480.698242188 557.158203125 l 1
 448.022460938 630.487304688 382 656 308 656 c 1
 198 656 143 604 143 531 c 1
 143 450 174 415 281 393 c 0
 352 378 l 1
 465 353.918032787 536 290 536 183 c 1
 536 72 444 -7 295 -7 c 1
 159.007827132 -7 94.7852727736 45.0926783705 49 124.791172725 c 5
 100.365234375 169.450195312 l 5
EndSplineSet
EndChar

StartChar: T
Encoding: 84 84 19
Width: 611
VWidth: 1048
Flags: HW
HStem: 0 21G<269 341> 646 62<48 269 341 563>
VStem: 269 72<0 646>
LayerCount: 2
Fore
SplineSet
48 708 m 5
 563 708 l 5
 563 646 l 5
 48 646 l 5
 48 708 l 5
269 646 m 5
 341 646 l 5
 341 0 l 1
 269 0 l 1
 269 646 l 5
EndSplineSet
Colour: ff0000
EndChar

StartChar: U
Encoding: 85 85 20
Width: 651
VWidth: 1048
Flags: HW
HStem: -8 61<232.072 418.896> 688 20G<80 152 499 571>
VStem: 80 72<142.923 708> 499 72<142.026 708>
AnchorPoint: "AccentCenter" 307 880 basechar 0
LayerCount: 2
Fore
SplineSet
80 708 m 5
 152 708 l 5
 152 264 l 1
 152 94 234 53 328 53 c 0
 416 53 499 94 499 264 c 1
 499 708 l 5
 571 708 l 5
 571 262 l 1
 571 62 453 -8 324 -8 c 0
 199 -8 80 62 80 264 c 1
 80 708 l 5
EndSplineSet
EndChar

StartChar: V
Encoding: 86 86 21
Width: 655
VWidth: 1048
Flags: HW
HStem: 0 21G<273.277 380.751> 688 20G<42 129.384 525.559 613>
LayerCount: 2
Fore
SplineSet
304 0 m 1
 532 708 l 5
 613 708 l 5
 374 0 l 1
 304 0 l 1
42 708 m 5
 123 708 l 5
 349 0 l 1
 280 0 l 1
 42 708 l 5
EndSplineSet
Colour: ff0000
EndChar

StartChar: W
Encoding: 87 87 22
Width: 812
VWidth: 1048
Flags: HW
HStem: 0 21G<190.389 285.969 530.156 621.605> 688 19G<32 110.272 701.734 780>
VStem: 32 74<675.909 707> 706 74<676.865 708>
LayerCount: 2
Fore
SplineSet
599 0 m 1
 535 0 l 1
 380 640 l 1
 448 640 l 1
 599 0 l 1
780 708 m 5
 617 0 l 1
 555 0 l 1
 706 708 l 5
 780 708 l 5
213 0 m 1
 372 640 l 1
 440 640 l 1
 281 0 l 1
 213 0 l 1
32 707 m 1
 106 707 l 1
 257 0 l 1
 195 0 l 1
 32 707 l 1
EndSplineSet
Colour: ff0000
EndChar

StartChar: X
Encoding: 88 88 23
Width: 660
VWidth: 1048
Flags: HW
HStem: 0 21G<56 154.533 504.533 604> 688 20G<56 154.575 504.492 604>
LayerCount: 2
Fore
SplineSet
56 708 m 5
 142 708 l 5
 330 409 l 1
 517 708 l 5
 604 708 l 5
 375 354 l 1
 604 0 l 1
 517 0 l 1
 330 300 l 1
 142 0 l 1
 56 0 l 1
 285 354 l 1
 56 708 l 5
EndSplineSet
EndChar

StartChar: Y
Encoding: 89 89 24
Width: 595
VWidth: 1048
Flags: HW
HStem: 0 21G<263 336> 688 20G<24 121.162 474.023 571>
VStem: 263 73<0 275>
AnchorPoint: "AccentCenter" 296 880 basechar 0
LayerCount: 2
Fore
SplineSet
263 275 m 1
 336 275 l 1
 336 0 l 1
 263 0 l 1
 263 275 l 1
268 275 m 1
 484 708 l 5
 571 708 l 5
 331 263 l 1
 268 275 l 1
24 708 m 5
 111 708 l 5
 331 275 l 1
 268 263 l 1
 24 708 l 5
EndSplineSet
Colour: ff0000
EndChar

StartChar: Z
Encoding: 90 90 25
Width: 603
VWidth: 1048
Flags: HW
HStem: 0 61<146 539> 647 61<64 539>
LayerCount: 2
Fore
SplineSet
457 647 m 5
 539 647 l 5
 146 61 l 1
 64 61 l 1
 457 647 l 5
64 61 m 1
 539 61 l 1
 539 0 l 1
 64 0 l 1
 64 61 l 1
64 708 m 5
 539 708 l 5
 539 647 l 5
 64 647 l 5
 64 708 l 5
EndSplineSet
EndChar

StartChar: bracketleft
Encoding: 91 91 26
Width: 394
VWidth: 1048
Flags: HW
HStem: -66 62<110 293> 757 62<110 293>
VStem: 77 216<-66 -4 757 819> 110 41<-66 -4 757 819>
LayerCount: 2
Fore
SplineSet
110 757 m 1xd0
 110 819 l 1xd0
 293 819 l 5
 293 757 l 5xe0
 110 757 l 1xd0
110 -66 m 1
 110 -4 l 1xd0
 293 -4 l 5
 293 -66 l 5xe0
 110 -66 l 1
77 819 m 1xe0
 151 819 l 1
 151 -66 l 1xd0
 77 -66 l 1
 77 819 l 1xe0
EndSplineSet
EndChar

StartChar: backslash
Encoding: 92 92 27
Width: 420
VWidth: 1048
Flags: HW
HStem: 748 20G<1 87.4932>
LayerCount: 2
Fore
SplineSet
420 -35 m 1
 342 -35 l 1
 1 768 l 5
 79 768 l 1
 420 -35 l 1
EndSplineSet
EndChar

StartChar: bracketright
Encoding: 93 93 28
Width: 394
VWidth: 1048
Flags: HW
HStem: -66 62<77 261> 757 62<77 261>
VStem: 77 216<-66 -4 757 819> 220 41<-66 -4 757 819>
LayerCount: 2
Fore
SplineSet
261 757 m 1xd0
 77 757 l 1
 77 819 l 1xe0
 261 819 l 1
 261 757 l 1xd0
261 -66 m 1xd0
 77 -66 l 1
 77 -4 l 1xe0
 261 -4 l 1
 261 -66 l 1xd0
293 819 m 1
 293 -66 l 1xe0
 220 -66 l 1
 220 819 l 1xd0
 293 819 l 1
EndSplineSet
EndChar

StartChar: asciicircum
Encoding: 94 94 29
Width: 505
VWidth: 1048
Flags: HW
HStem: 667 185
VStem: 77 327
LayerCount: 2
Fore
SplineSet
77 716 m 25
 208 852 l 1
 273 852 l 25
 404 716 l 25
 364 667 l 25
 241 786 l 25
 118 667 l 25
 77 716 l 25
EndSplineSet
EndChar

StartChar: underscore
Encoding: 95 95 30
Width: 579
VWidth: 1048
Flags: HW
HStem: -66 66<95 496>
LayerCount: 2
Fore
SplineSet
95 0 m 5
 496 0 l 5
 496 -66 l 5
 95 -66 l 5
 95 0 l 5
EndSplineSet
EndChar

StartChar: grave
Encoding: 96 96 31
Width: 284
VWidth: 1048
Flags: HW
HStem: 527 242
VStem: 32 217
LayerCount: 2
Fore
SplineSet
124 769 m 1
 249 527 l 1
 188 528 l 1
 32 769 l 1
 124 769 l 1
EndSplineSet
EndChar

StartChar: a
Encoding: 97 97 32
Width: 529
Flags: HW
HStem: -8 60<159.586 320.325> 0 21G<395.867 457> 250 61<159.345 384> 466 61<171.416 341.192>
VStem: 56 73<81.6253 221.196> 384 73<105.825 250 311 422.375> 399 58<0 45.7649>
AnchorPoint: "AccentCenter" 260 687 basechar 0
AnchorPoint: "Ring" 264 687 basechar 0
LayerCount: 2
Fore
SplineSet
129 147 m 0xbc
 129 84 165 52 240 52 c 0
 301 52 356 84 384 138 c 9
 384 250 l 1
 268 250 l 2
 160 250 129 226 129 147 c 0xbc
386 83 m 1
 366 33 303 -8 236 -8 c 0
 125 -8 56 52 56 147 c 0
 56 252 114 311 254 311 c 2
 384 311 l 1
 384 346 l 2
 384 430 335 466 258 466 c 0
 198 466 159 444 128 404 c 1
 84 440 l 1
 117 494 181 527 260 527 c 0
 369 527 457 474 457 332 c 2
 457 122 l 1xbc
 457 0 l 1
 399 0 l 1x7a
 386 83 l 1
EndSplineSet
EndChar

StartChar: b
Encoding: 98 98 33
Width: 609
VWidth: 1048
Flags: HW
HStem: -7 61<230.967 400.346> 468 60<226.5 396.733>
VStem: 88 74<51.4734 89 131 366 439 724> 88 57<0 37.5266> 479 74<144.263 375.783>
LayerCount: 2
Fore
SplineSet
153 439 m 5xe8
 169 480 222 528 317 528 c 5
 444 528 553 440 553 269 c 5
 553 78 441 -7 317 -7 c 5
 202 -7 150 76 135 131 c 5
 142 200 l 5
 160 123 225 54 313 54 c 5
 414 54 479 120 479 266 c 5
 479 399 407 468 313 468 c 5
 236 468 180 425 162 366 c 5
 153 439 l 5xe8
88 724 m 5
 162 724 l 5
 162 89 l 5xe8
 145 0 l 5
 88 0 l 5xd8
 88 724 l 5
EndSplineSet
EndChar

StartChar: c
Encoding: 99 99 34
Width: 506
VWidth: 1048
Flags: HW
HStem: -7 60<203.039 370.755> 468 60<203.884 373.256>
VStem: 56 72<141.843 379.883>
AnchorPoint: "AccentCenter" 266 686 basechar 0
LayerCount: 2
Fore
SplineSet
429 389 m 0
 388 452 343 468 280 468 c 0
 188 468 128 395 128 258 c 0
 128 121 190 53 282 53 c 0
 357 53 394 82 432 140 c 4
 482 102 l 4
 427 28 380 -7 282 -7 c 0
 156 -7 56 94 56 261 c 0
 56 428 145 528 280 528 c 0
 370 528 429 499 479 422 c 0
 429 389 l 0
EndSplineSet
EndChar

StartChar: d
Encoding: 100 100 35
Width: 609
VWidth: 1048
Flags: HW
HStem: -7 61<208.654 378.033> 468 60<212.267 382.5>
VStem: 56 74<144.263 375.783> 447 74<51.4734 89 131 366 439 724> 464 57<0 37.5266>
LayerCount: 2
Fore
SplineSet
456 439 m 5xf0
 447 366 l 5
 429 425 373 468 296 468 c 5
 202 468 130 399 130 266 c 5
 130 120 195 54 296 54 c 5
 384 54 449 123 467 200 c 5
 474 131 l 5
 459 76 407 -7 292 -7 c 5
 168 -7 56 78 56 269 c 5
 56 440 165 528 292 528 c 5
 387 528 440 480 456 439 c 5xf0
521 724 m 5
 521 0 l 5
 464 0 l 5xe8
 447 89 l 5
 447 724 l 5
 521 724 l 5
EndSplineSet
EndChar

StartChar: e
Encoding: 101 101 36
Width: 545
VWidth: 1048
Flags: HW
HStem: -8 60<205.488 383.926> 238 62<129 421> 467 60<200.528 364.533>
VStem: 56 73<138.085 238 300 386.493> 421 68<300.745 405.487>
AnchorPoint: "AccentCenter" 285 686 basechar 0
LayerCount: 2
Fore
SplineSet
287 467 m 1
 180 467 129 392 129 300 c 1
 421 300 l 1
 421 318 l 1
 421 416 365 467 287 467 c 1
288 527 m 0
 397 527 489 447 489 307 c 1
 489 280 487 257 476 238 c 1
 129 238 l 1
 129 133 183 52 287 52 c 0
 354 52 403 73 440 124 c 1
 485 83 l 1
 429 23 378 -8 285 -8 c 0
 146 -8 56 98 56 261 c 0
 56 422 143 527 288 527 c 0
EndSplineSet
EndChar

StartChar: f
Encoding: 102 102 37
Width: 420
VWidth: 1048
Flags: HW
HStem: 0 21G<156 230> 459 61<56 366> 674 58<244.532 368>
VStem: 156 74<0 659.704>
LayerCount: 2
Fore
SplineSet
300 674 m 1
 256 674 230 652 230 600 c 1
 230 0 l 1
 156 0 l 1
 156 587 l 1
 156 683 214 732 300 732 c 1
 324 732 346 730 374 725 c 1
 368 674 l 1
 346 674 324 674 300 674 c 1
56 520 m 1
 156 520 l 1
 366 520 l 1
 366 459 l 1
 290 459 l 1
 56 459 l 1
 56 520 l 1
EndSplineSet
EndChar

StartChar: g
Encoding: 103 103 38
Width: 554
VWidth: 1048
Flags: HW
HStem: -192 57<151.476 381.799> 12 62<197.034 427.179> 188 57<139.5 321.575> 460 60<157.668 308.289 423 509>
VStem: 48 79<-110.899 -9.18562> 53 66<86.9209 159.122 292.275 419.029> 359 73<281.713 427.16> 440 74<-91.1798 -2.84891>
LayerCount: 2
Fore
SplineSet
254 189 m 1xf7
 162 182 119 160 119 119 c 0
 119 88 157 74 199 74 c 0
 193 25 l 0
 100 25 53 65 53 118 c 0
 53 188 136 218 234 229 c 1
 254 189 l 1xf7
354 12 m 1
 175 12 l 1
 148 0 127 -27 127 -66 c 1xfb
 127 -116 177 -135 256 -135 c 0
 352 -135 440 -104 440 -50 c 0
 440 3 400 12 354 12 c 1
345 74 m 1
 442 74 514 39 514 -47 c 0
 514 -138 389 -192 254 -192 c 0
 129 -192 48 -144 48 -68 c 1
 48 5 133 42 197 59 c 1
 199 74 l 1
 345 74 l 1
126 358 m 0
 126 282 163 245 244 245 c 0
 318 245 359 282 359 358 c 0
 359 424 318 467 244 467 c 0
 163 467 126 424 126 358 c 0
53 362 m 0xf7
 53 463 127 527 240 527 c 0
 356 527 432 463 432 362 c 0
 432 253 354 188 238 188 c 0
 116 188 53 264 53 362 c 0xf7
423 460 m 1
 352 460 l 1
 324 460 l 1
 302 520 l 1
 509 520 l 1
 509 460 l 1
 423 460 l 1
EndSplineSet
Colour: ff0000
EndChar

StartChar: h
Encoding: 104 104 39
Width: 546
VWidth: 1048
Flags: HW
HStem: 0 21G<64 137 408 482> 467 61<202.384 352.847> 687 20G<64 137>
VStem: 64 73<0 356 413 707> 408 74<0 411.578>
AnchorPoint: "AccentCenter" 266 686 basechar 0
LayerCount: 2
Fore
SplineSet
119 413 m 5
 136 468 193 528 285 528 c 0
 415 528 482 435 482 326 c 1
 482 0 l 1
 408 0 l 1
 408 324 l 2
 408 414 359 467 276 467 c 0
 209 467 162 426 137 356 c 5
 119 413 l 5
64 707 m 1
 137 707 l 1
 137 0 l 1
 64 0 l 1
 64 707 l 1
EndSplineSet
EndChar

StartChar: i
Encoding: 105 105 40
Width: 313
VWidth: 1048
Flags: HW
HStem: 0 21G<135 209> 459 60<32 152> 634 105<130.515 215.485>
VStem: 121 104<643.515 729.146> 135 74<0 459> 135 17<459 519>
LayerCount: 2
Fore
SplineSet
121 686 m 0
 121 715 144 739 173 739 c 0
 202 739 225 715 225 686 c 0
 225 657 202 634 173 634 c 0
 144 634 121 657 121 686 c 0
135 459 m 1
 32 459 l 1
 32 519 l 1
 135 519 l 1
 152 519 l 1
 209 519 l 1
 209 0 l 1
 135 0 l 1
 135 459 l 1
EndSplineSet
EndChar

StartChar: j
Encoding: 106 106 41
Width: 271
VWidth: 1048
Flags: HW
HStem: -191 60<0 79.1285> 499 20G<100 174> 634 105<95.5153 181.146>
VStem: 86 105<643.515 729.146> 100 74<-110.176 519>
LayerCount: 2
Fore
SplineSet
86 686 m 0xf0
 86 715 109 739 138 739 c 0
 167 739 191 715 191 686 c 0
 191 657 167 634 138 634 c 0
 109 634 86 657 86 686 c 0xf0
12 -131 m 1
 84 -131 100 -103 100 -20 c 1
 100 519 l 1
 174 519 l 1
 174 -20 l 1xe8
 174 -134 130 -191 12 -191 c 1
 0 -191 l 1
 0 -131 l 1
 12 -131 l 1
EndSplineSet
Colour: ff0000
EndChar

StartChar: k
Encoding: 107 107 42
Width: 519
VWidth: 1048
Flags: HW
HStem: 0 21G<88 162 380.818 499> 499 20G<368.41 496>
VStem: 88 74<0 724>
LayerCount: 2
Fore
SplineSet
238 275 m 1
 499 0 l 1
 399 0 l 1
 149 275 l 1
 238 275 l 1
149 275 m 1
 388 519 l 1
 496 519 l 1
 238 275 l 1
 149 275 l 1
88 724 m 1
 162 724 l 1
 162 0 l 1
 88 0 l 1
 88 724 l 1
EndSplineSet
Colour: ff0000
EndChar

StartChar: l
Encoding: 108 108 43
Width: 269
VWidth: 1048
Flags: HW
HStem: -7 58<164.102 243> 748 20G<88 161>
VStem: 88 73<53.8582 768>
LayerCount: 2
Fore
SplineSet
177 -7 m 1
 120 -7 88 24 88 85 c 1
 88 768 l 1
 161 768 l 1
 161 89 l 1
 161 62 172 51 198 51 c 1
 243 51 l 1
 253 0 l 1
 235 -5 199 -7 177 -7 c 1
EndSplineSet
EndChar

StartChar: m
Encoding: 109 109 44
Width: 831
VWidth: 1048
Flags: HW
HStem: 0 21G<88 161 385 458 686 759> 466 61<213.265 351.15 509.916 647.47> 499 20G<88 148.596>
VStem: 88 73<0 379 430 469.872> 88 57<479.128 519> 385 73<0 430> 686 73<0 425.328>
LayerCount: 2
Fore
SplineSet
437 420 m 1xc6
 451 465 502 527 602 527 c 5
 695 527 759 459 759 354 c 1
 759 0 l 1
 686 0 l 1
 686 353 l 1
 686 430 638 466 583 466 c 5
 519 466 468 428 448 375 c 1
 437 420 l 1xc6
151 434 m 1
 162 467 206 527 307 527 c 1
 378 527 426 486 446 430 c 1
 458 430 l 1
 458 0 l 1
 385 0 l 1
 385 369 l 1
 385 427 343 466 288 466 c 1
 223 466 173 426 161 379 c 1xd6
 151 434 l 1
88 519 m 1xae
 145 519 l 1xae
 161 430 l 1
 161 0 l 1
 88 0 l 1xb6
 88 519 l 1xae
EndSplineSet
EndChar

StartChar: n
Encoding: 110 110 45
Width: 534
VWidth: 1048
Flags: HW
HStem: 0 21G<64 137 408 482> 466 61<199.523 353.099> 499 20G<64 125.638>
VStem: 64 57<307 307 413 457.646 496.713 519> 119 18<307 307 413 465> 408 74<0 411.239>
AnchorPoint: "AccentCenter" 254 686 basechar 0
LayerCount: 2
Fore
SplineSet
64 519 m 1xb4
 121 519 l 1xb4
 137 450 l 1
 137 0 l 1xac
 64 0 l 1
 64 519 l 1xb4
119 413 m 1xcc
 131 465 187 527 279 527 c 4
 409 527 470 435 470 326 c 5
 470 0 l 5
 396 0 l 5
 396 324 l 6
 396 414 347 466 264 466 c 4
 164 466 124 383 124 307 c 1
 119 413 l 1xcc
EndSplineSet
EndChar

StartChar: o
Encoding: 111 111 46
Width: 576
VWidth: 1048
Flags: HW
HStem: -8 60<206.289 365.521> 467 60<208.867 363.811>
VStem: 56 72<141.619 374.485> 448 72<143.757 372.316>
AnchorPoint: "AccentCenter" 285 686 basechar 0
LayerCount: 2
Fore
SplineSet
128 258 m 0
 128 121 194 52 286 52 c 0
 378 52 448 121 448 258 c 0
 448 395 378 467 286 467 c 0
 194 467 128 395 128 258 c 0
56 261 m 0
 56 428 151 527 286 527 c 0
 421 527 520 428 520 261 c 0
 520 94 421 -8 286 -8 c 0
 160 -8 56 94 56 261 c 0
EndSplineSet
EndChar

StartChar: p
Encoding: 112 112 47
Width: 609
VWidth: 1048
Flags: HW
HStem: -7 60<226.5 396.733> 467 61<231.803 398.074>
VStem: 88 74<431 468.527> 88 57<482.473 520> 479 74<144.479 377.602>
LayerCount: 2
Fore
SplineSet
153 82 m 5xe8
 169 41 222 -7 317 -7 c 5
 444 -7 553 92 553 252 c 5
 553 432 462 528 324 528 c 5
 209 528 150 445 135 390 c 5
 142 321 l 5
 160 398 225 467 313 467 c 5
 414 467 479 401 479 255 c 5
 479 122 407 53 313 53 c 5
 236 53 180 96 162 155 c 5
 153 82 l 5xe8
88 -191 m 5xd8
 162 -191 l 5
 162 431 l 5xe8
 145 520 l 5
 88 520 l 5
 88 -191 l 5xd8
EndSplineSet
EndChar

StartChar: q
Encoding: 113 113 48
Width: 609
VWidth: 1048
Flags: HW
HStem: -7 60<212.267 382.5> 467 61<210.926 377.197> 500 20G<460.18 521>
VStem: 56 74<144.479 377.602> 447 74<-191 82 155 390 431 468.527> 464 57<482.473 520>
LayerCount: 2
Fore
SplineSet
456 82 m 1xd8
 440 41 387 -7 292 -7 c 1
 165 -7 56 92 56 252 c 1
 56 432 147 528 285 528 c 1
 400 528 459 445 474 390 c 1
 467 321 l 1
 449 398 384 467 296 467 c 1
 195 467 130 401 130 255 c 1
 130 122 202 53 296 53 c 1
 373 53 429 96 447 155 c 1
 456 82 l 1xd8
521 -191 m 1
 447 -191 l 1
 447 431 l 1xb8
 464 520 l 1
 521 520 l 1xb4
 521 -191 l 1
EndSplineSet
EndChar

StartChar: r
Encoding: 114 114 49
Width: 367
VWidth: 1048
Flags: HW
HStem: 0 21G<88 161> 463 65<203.426 336> 463 54<281.441 336> 500 20G<88 147.623>
VStem: 88 73<0 452.656> 88 57<465.344 520> 88 49<373 454.881>
LayerCount: 2
Fore
SplineSet
280 528 m 1xc2
 311 528 325 525 350 517 c 1xa2
 336 463 l 1
 308 463 l 1
 204 463 161 426 136 340 c 1
 137 373 l 1
 147 462 184 528 280 528 c 1xc2
88 520 m 1x94
 145 520 l 1x94
 161 398 l 1
 161 0 l 1
 88 0 l 1x98
 88 520 l 1x94
EndSplineSet
Colour: ff0000
EndChar

StartChar: s
Encoding: 115 115 50
Width: 470
VWidth: 1048
Flags: HW
HStem: -9 60<136.044 325.627> 467 60<152.163 317.546>
VStem: 47 72<333.456 435.638> 358 72<79.8596 194.839>
LayerCount: 2
Fore
SplineSet
42 76 m 1
 91 115 l 1
 120 75 160 51 236 51 c 1
 321 51 358 83 358 139 c 1
 358 188 324 216 267 228 c 1
 172 248 l 0
 91 268 47 321 47 391 c 1
 47 467 121 527 236 527 c 1
 310 527 365 498 415 442 c 1
 366 403 l 1
 337 440 292 467 238 467 c 1
 169 467 119 436 119 391 c 1
 119 348 142 319 194 306 c 0
 292 285 l 1
 367 266 430 220 430 136 c 1
 430 40 351 -9 238 -9 c 1
 147 -9 82 23 42 76 c 1
EndSplineSet
EndChar

StartChar: t
Encoding: 116 116 51
Width: 420
VWidth: 1048
Flags: HW
HStem: -7 58<242.838 354> 460 60<54 360>
VStem: 156 73<63.4975 635>
LayerCount: 2
Fore
SplineSet
284 -7 m 1
 196 -7 156 40 156 120 c 1
 156 635 l 1
 229 686 l 1
 229 121 l 1
 229 70 250 51 304 51 c 1
 354 51 l 1
 362 0 l 1
 333 -4 311 -7 284 -7 c 1
54 460 m 1
 54 520 l 1
 360 520 l 1
 360 460 l 1
 54 460 l 1
EndSplineSet
EndChar

StartChar: u
Encoding: 117 117 52
Width: 534
VWidth: 1048
Flags: HW
HStem: -8 61<185.604 341.47> 0 21G<420.098 482> 499 20G<64 137 408 482>
VStem: 64 73<103.167 519> 408 74<45.264 82 119 519> 417 9<128 193.069> 424 58<0 36.736>
AnchorPoint: "AccentCenter" 272 686 basechar 0
LayerCount: 2
Fore
SplineSet
470 0 m 5x72
 412 0 l 5x72
 396 82 l 5
 396 519 l 5
 470 519 l 5x78
 470 0 l 5x72
414 119 m 5xb4
 385 46 345 -8 253 -8 c 0
 123 -8 64 85 64 194 c 1
 64 519 l 1
 137 519 l 1
 137 196 l 2
 137 106 176 53 259 53 c 0
 357 53 405 128 405 212 c 5
 414 119 l 5xb4
EndSplineSet
EndChar

StartChar: v
Encoding: 118 118 53
Width: 556
VWidth: 1048
Flags: HW
HStem: 0 21G<230.37 331.399> 499 20G<40 127.091 429.141 516>
LayerCount: 2
Fore
SplineSet
258 0 m 5
 436 519 l 1
 516 519 l 1
 324 0 l 5
 258 0 l 5
40 519 m 1
 120 519 l 1
 304 0 l 1
 238 0 l 1
 40 519 l 1
EndSplineSet
Colour: ff0000
EndChar

StartChar: w
Encoding: 119 119 54
Width: 751
VWidth: 1048
Flags: HW
HStem: 0 21G<154.414 262.356 482.952 590.817> 499 20G<40 119.123 326.644 425.048 630.568 711>
VStem: 40 75<487.738 519> 635 76<489.238 519>
LayerCount: 2
Fore
SplineSet
551 0 m 5
 488 0 l 1
 357 519 l 1
 420 519 l 1
 551 0 l 5
711 519 m 1
 586 0 l 1
 520 0 l 1
 635 519 l 1
 711 519 l 1
193 0 m 1
 332 519 l 1
 396 519 l 1
 257 0 l 1
 193 0 l 1
40 519 m 1
 115 519 l 1
 222 0 l 1
 159 0 l 1
 40 519 l 1
EndSplineSet
Colour: ff0000
EndChar

StartChar: x
Encoding: 120 120 55
Width: 516
VWidth: 1048
Flags: HW
HStem: 0 21G<30 133.521 393.573 497> 499 20G<30 133.714 393.381 497>
LayerCount: 2
Fore
SplineSet
30 519 m 1
 120 519 l 1
 264 309 l 5
 407 519 l 1
 497 519 l 1
 309 260 l 1
 497 0 l 1
 407 0 l 1
 264 213 l 5
 120 0 l 1
 30 0 l 1
 219 260 l 1
 30 519 l 1
EndSplineSet
Colour: ff0000
EndChar

StartChar: y
Encoding: 121 121 56
Width: 555
VWidth: 1048
Flags: HW
HStem: 499 20G<48 136.396 426.604 518>
AnchorPoint: "AccentCenter" 291 686 basechar 0
LayerCount: 2
Fore
SplineSet
159 -192 m 1
 246 25 l 1
 48 519 l 1
 129 519 l 1
 271 135 l 1
 282 83 l 1
 292 135 l 1
 434 519 l 1
 518 519 l 1
 234 -192 l 1
 159 -192 l 1
EndSplineSet
Colour: ff0000
EndChar

StartChar: z
Encoding: 122 122 57
Width: 518
VWidth: 1048
Flags: HW
HStem: 0 60<144 458> 456 64<63 452>
LayerCount: 2
Fore
SplineSet
368 456 m 1
 452 456 l 1
 144 60 l 1
 60 60 l 1
 368 456 l 1
60 60 m 1
 458 60 l 1
 458 0 l 1
 60 0 l 1
 60 60 l 1
63 520 m 1
 452 520 l 1
 452 456 l 1
 63 456 l 1
 63 520 l 1
EndSplineSet
EndChar

StartChar: braceleft
Encoding: 123 123 58
Width: 369
VWidth: 1048
Flags: HW
HStem: -70 62<222.875 321> 346 61<48 94.5857> 757 61<230.375 321>
VStem: 119 74<23.1736 321.566 426.392 719.703>
LayerCount: 2
Fore
SplineSet
119 636 m 1
 119 757 192 818 321 818 c 1
 321 757 l 1
 230 757 193 727 193 636 c 0
 193 513 l 1
 193 431 149 392 114 376 c 1
 147 364 193 331 193 247 c 5
 193 111 l 1
 193 10 230 -8 321 -8 c 1
 321 -70 l 1
 185 -70 119 -20 119 111 c 0
 119 151 119 199 119 273 c 17
 119 311 80 346 48 346 c 9
 48 407 l 1
 81 407 119 432 119 478 c 9
 119 636 l 1
EndSplineSet
EndChar

StartChar: bar
Encoding: 124 124 59
Width: 235
VWidth: 1048
Flags: HW
VStem: 77 74<-66 819>
LayerCount: 2
Fore
SplineSet
77 819 m 1
 151 819 l 1
 151 -66 l 1
 77 -66 l 1
 77 819 l 1
EndSplineSet
EndChar

StartChar: braceright
Encoding: 125 125 60
Width: 369
VWidth: 1048
Flags: HW
HStem: -70 61<48 138.625> 346 61<274.414 321> 756 62<48 146.125>
VStem: 176 74<28.2971 326.608 431.976 724.826>
LayerCount: 2
Fore
SplineSet
250 112 m 1
 250 -9 177 -70 48 -70 c 1
 48 -9 l 1
 139 -9 176 21 176 112 c 0
 176 240 l 5
 176 322 220 361 255 377 c 5
 222 389 176 430 176 514 c 5
 176 637 l 1
 176 738 139 756 48 756 c 1
 48 818 l 1
 184 818 250 768 250 637 c 0
 250 597 250 554 250 480 c 21
 250 442 289 407 321 407 c 13
 321 346 l 5
 288 346 250 321 250 275 c 13
 250 112 l 1
EndSplineSet
EndChar

StartChar: asciitilde
Encoding: 126 126 61
Width: 669
VWidth: 1048
Flags: HW
HStem: 225 66<378.297 484.61> 321 65<179 294.228>
LayerCount: 2
Fore
SplineSet
77 265 m 5
 77 265 117 386 249 386 c 4
 324 386 368 291 439 291 c 4
 497 291 525 384 525 384 c 5
 585 343 l 29
 585 343 537 225 431 225 c 4
 348 225 302 321 237 321 c 4
 162 321 128 225 128 225 c 5
 77 265 l 5
EndSplineSet
EndChar

StartChar: exclam
Encoding: 33 33 62
Width: 298
VWidth: 1048
Flags: HW
HStem: -8 121<89.4534 185.14> 696 20G<92 182>
VStem: 77 121<4.83948 99.7768> 92 90<293.088 716> 100 74<244 666.912>
LayerCount: 2
Fore
SplineSet
92 716 m 5xd0
 182 716 l 5xd0
 174 244 l 5
 100 244 l 5xc8
 92 716 l 5xd0
77 52 m 4xe0
 77 85 100 113 137 113 c 4
 174 113 198 85 198 52 c 4
 198 19 174 -8 137 -8 c 4
 100 -8 77 19 77 52 c 4xe0
EndSplineSet
EndChar

StartChar: quotedbl
Encoding: 34 34 63
Width: 427
VWidth: 1048
Flags: HW
HStem: 520 249<72 128 299 355>
VStem: 64 72<545.896 769> 72 56<520 743.104> 291 72<545.896 769> 299 56<520 743.104>
LayerCount: 2
Fore
SplineSet
291 769 m 1x90
 363 769 l 1x90
 355 520 l 5
 299 520 l 1x88
 291 769 l 1x90
64 769 m 1xc0
 136 769 l 1xc0
 128 520 l 1
 72 520 l 1xa0
 64 769 l 1xc0
EndSplineSet
EndChar

StartChar: numbersign
Encoding: 35 35 64
Width: 710
VWidth: 1048
Flags: HW
HStem: 0 21G<93 176.635 311 394.635> 209 60<77 609> 459 60<77 609>
LayerCount: 2
Fore
SplineSet
93 0 m 1
 297 724 l 1
 375 724 l 1
 171 0 l 1
 93 0 l 1
311 0 m 1
 515 724 l 1
 593 724 l 1
 389 0 l 1
 311 0 l 1
77 269 m 1
 609 269 l 1
 609 209 l 1
 77 209 l 1
 77 269 l 1
77 519 m 1
 609 519 l 1
 609 459 l 1
 77 459 l 1
 77 519 l 1
EndSplineSet
EndChar

StartChar: dollar
Encoding: 36 36 65
Width: 610
VWidth: 1048
Flags: HW
HStem: -7 59<209.588 416.727> 656 60<214.496 412.635>
VStem: 87 72<450.178 606.028> 279 73<-139 863> 480 72<107.761 256.999>
LayerCount: 2
Fore
SplineSet
279 863 m 1
 352 863 l 1
 352 -139 l 1
 279 -139 l 1
 279 863 l 1
313 716 m 1
 413 716 491 676 538 594 c 1
 486 560 l 1
 449 625 396 656 308 656 c 1
 198 656 159 597 159 535 c 1
 159 454 190 415 297 393 c 0
 368 378 l 1
 490 352 552 286 552 179 c 1
 552 68 452 -7 315 -7 c 1
 205 -7 117 27 64 134 c 1
 120 163 l 1
 154 84 233 52 315 52 c 1
 424 52 480 104 480 178 c 1
 480 266 432 299 338 318 c 1
 270 332 l 0
 145 355 87 430 87 534 c 1
 87 639 180 716 313 716 c 1
EndSplineSet
EndChar

StartChar: percent
Encoding: 37 37 66
Width: 784
VWidth: 1048
Flags: HW
HStem: -8 66<506.021 607.786> 0 21G<138 231.598> 254 66<507.178 606.252> 387 66<160.021 261.17> 649 66<161.178 260.896> 687 20G<537.373 630>
VStem: 64 74<475.378 626.108> 284 74<475.605 625.41> 410 74<80.3782 231.108> 630 74<80.3782 230.172>
LayerCount: 2
Fore
SplineSet
556 254 m 24xb3c0
 511 254 484 219 484 154 c 0
 484 90 511 58 557 58 c 24
 602 58 630 90 630 154 c 0
 630 218 601 254 556 254 c 24xb3c0
557 320 m 24
 644 320 704 255 704 156 c 0
 704 58 644 -8 557 -8 c 24
 470 -8 410 58 410 156 c 0
 410 255 470 320 557 320 c 24
210 649 m 24x3bc0
 165 649 138 614 138 549 c 0
 138 485 165 453 211 453 c 24
 256 453 284 486 284 550 c 0
 284 614 255 649 210 649 c 24x3bc0
211 715 m 24
 298 715 358 650 358 551 c 0
 358 453 298 387 211 387 c 24
 124 387 64 453 64 551 c 0
 64 650 124 715 211 715 c 24
138 0 m 1x77c0
 549 707 l 1
 630 707 l 1
 220 0 l 1
 138 0 l 1x77c0
EndSplineSet
EndChar

StartChar: ampersand
Encoding: 38 38 67
Width: 685
VWidth: 1048
Flags: HW
HStem: -7 61<211.433 413.172> 419 60<214.002 278> 648 60<197 530>
VStem: 56 72<140.158 335.351> 526 72<173.811 433>
LayerCount: 2
Fore
SplineSet
125 708 m 1
 530 708 l 1
 530 648 l 25
 197 648 l 25
 629 0 l 25
 543 0 l 1
 125 649 l 1
 125 708 l 1
598 291 m 1
 598 110 475 -7 311 -7 c 0
 160 -7 56 85 56 240 c 0
 56 355 144 479 278 479 c 1
 309 419 l 1
 198 419 128 351 128 240 c 0
 128 126 188 54 309 54 c 0
 444 54 526 139 526 291 c 1
 526 433 l 1
 598 433 l 1
 598 291 l 1
EndSplineSet
Colour: ff0000
EndChar

StartChar: quotesingle
Encoding: 39 39 68
Width: 136
VWidth: 1048
Flags: HW
HStem: 528 241<40 96>
VStem: 32 72<553.064 769> 40 56<528 743.936>
LayerCount: 2
Fore
SplineSet
104 769 m 1xc0
 96 528 l 1
 40 528 l 1xa0
 32 769 l 1
 104 769 l 1xc0
EndSplineSet
EndChar

StartChar: parenleft
Encoding: 40 40 69
Width: 349
VWidth: 1048
Flags: HW
VStem: 64 74<198.577 542.528>
LayerCount: 2
Fore
SplineSet
236 800 m 5
 317 800 l 5
 234 739 138 598 138 368 c 4
 138 139 242 7 317 -59 c 5
 231 -59 l 5
 126 26 64 191 64 368 c 4
 64 563 124 709 236 800 c 5
EndSplineSet
EndChar

StartChar: parenright
Encoding: 41 41 70
Width: 349
VWidth: 1048
Flags: HW
VStem: 211 74<198.472 542.423>
LayerCount: 2
Fore
SplineSet
113 -59 m 5
 32 -59 l 5
 115 2 211 143 211 373 c 4
 211 602 107 734 32 800 c 5
 118 800 l 5
 223 715 285 550 285 373 c 4
 285 178 225 32 113 -59 c 5
EndSplineSet
EndChar

StartChar: asterisk
Encoding: 42 42 71
Width: 550
VWidth: 1048
Flags: HW
HStem: 687 20G<89.9683 157.875 368.75 436.349>
VStem: 230 66<657.338 806>
LayerCount: 2
Fore
SplineSet
129 488 m 1
 188 573 l 1
 247 633 l 1
 280 608 l 1
 243 535 l 1
 182 451 l 1
 129 488 l 1
397 488 m 1
 344 451 l 1
 284 535 l 1
 247 608 l 1
 280 633 l 1
 338 573 l 1
 397 488 l 1
96 707 m 1
 195 675 l 1
 269 638 l 1
 257 599 l 1
 175 612 l 1
 77 644 l 1
 96 707 l 1
430 707 m 1
 450 644 l 1
 351 612 l 1
 269 599 l 1
 257 638 l 1
 332 675 l 1
 430 707 l 1
230 806 m 1
 296 806 l 1
 296 702 l 1
 284 621 l 1
 243 621 l 1
 230 702 l 1
 230 806 l 1
EndSplineSet
EndChar

StartChar: plus
Encoding: 43 43 72
Width: 597
VWidth: 1048
Flags: HW
HStem: 254 65<77 497>
VStem: 253 65<74 500>
LayerCount: 2
Fore
SplineSet
253 500 m 5
 318 500 l 5
 318 74 l 5
 253 74 l 5
 253 500 l 5
77 319 m 5
 497 319 l 5
 497 254 l 5
 77 254 l 5
 77 319 l 5
EndSplineSet
EndChar

StartChar: comma
Encoding: 44 44 73
Width: 234
VWidth: 1048
Flags: HW
HStem: -144 222
VStem: 34 142
LayerCount: 2
Fore
SplineSet
104 78 m 1
 176 78 l 1
 96 -144 l 1
 34 -144 l 1
 104 78 l 1
EndSplineSet
EndChar

StartChar: hyphen
Encoding: 45 45 74
Width: 450
VWidth: 1048
Flags: HW
HStem: 254 65<77 375>
VStem: 77 298<254 319>
LayerCount: 2
Fore
SplineSet
77 319 m 1
 375 319 l 1
 375 254 l 1
 77 254 l 1
 77 319 l 1
EndSplineSet
EndChar

StartChar: period
Encoding: 46 46 75
Width: 249
VWidth: 1048
Flags: HW
HStem: -8 121<74.4534 170.14>
VStem: 62 121<4.83948 99.7768>
LayerCount: 2
Fore
SplineSet
62 52 m 4
 62 85 85 113 122 113 c 4
 159 113 183 85 183 52 c 4
 183 19 159 -8 122 -8 c 4
 85 -8 62 19 62 52 c 4
EndSplineSet
EndChar

StartChar: slash
Encoding: 47 47 76
Width: 415
VWidth: 1048
Flags: HW
HStem: 749 20G<333.507 415>
LayerCount: 2
Fore
SplineSet
1 -34 m 1
 342 769 l 1
 415 769 l 5
 74 -34 l 5
 1 -34 l 1
EndSplineSet
EndChar

StartChar: zero
Encoding: 48 48 77
Width: 550
VWidth: 1048
Flags: HW
HStem: -7 60<195.935 348.571> 655 60<195.065 351.618>
VStem: 35 74<174.968 535.931> 439 75<179.913 535.817>
LayerCount: 2
Fore
SplineSet
109 358 m 4
 109 159 159 53 272 53 c 4
 389 53 439 168 439 360 c 4
 439 549 391 655 273 655 c 4
 156 655 109 551 109 358 c 4
35 357 m 4
 35 589 108 715 273 715 c 4
 439 715 514 587 514 360 c 4
 514 131 438 -7 272 -7 c 4
 112 -7 35 121 35 357 c 4
EndSplineSet
EndChar

StartChar: one
Encoding: 49 49 78
Width: 550
VWidth: 1048
Flags: HW
HStem: 0 64<60 482> 687 20G<206.294 315>
VStem: 241 74<0 635>
LayerCount: 2
Fore
SplineSet
76 64 m 1
 482 64 l 1
 482 0 l 1
 76 0 l 1
 76 64 l 1
257 0 m 1
 257 635 l 1
 58 509 l 5
 58 586 l 1
 247 707 l 1
 331 707 l 1
 331 0 l 1
 257 0 l 1
EndSplineSet
Colour: ff0000
EndChar

StartChar: two
Encoding: 50 50 79
Width: 550
VWidth: 1048
Flags: HW
HStem: 0 68<160 478> 655 61<168.374 334.744>
VStem: 396 74<417.874 596.641>
LayerCount: 2
Fore
SplineSet
65 68 m 1
 310 329 l 0
 376 404 396 450 396 522 c 0
 396 600 339 655 254 655 c 0
 189 655 142 623 101 575 c 1
 59 618 l 1
 110 687 177 716 252 716 c 0
 388 716 470 627 470 518 c 0
 470 425 440 374 368 296 c 0
 160 68 l 1
 478 68 l 1
 478 0 l 1
 65 0 l 1
 65 68 l 1
EndSplineSet
EndChar

StartChar: three
Encoding: 51 51 80
Width: 550
VWidth: 1048
Flags: HW
HStem: -7 60<156.315 355.964> 369 60<274 363.252> 648 60<75 391>
VStem: 430 72<123.669 307.812>
LayerCount: 2
Fore
SplineSet
75 708 m 1
 475 708 l 1
 475 648 l 1
 274 429 l 1
 402 429 502 353 502 218 c 0
 502 82 424 -7 258 -7 c 0
 146 -7 92 39 33 103 c 1
 79 145 l 1
 128 90 164 53 252 53 c 0
 356 53 430 94 430 220 c 0
 430 319 372 369 261 369 c 2
 192 369 l 1
 194 429 l 1
 391 648 l 1
 75 648 l 1
 75 708 l 1
EndSplineSet
EndChar

StartChar: four
Encoding: 52 52 81
Width: 550
VWidth: 1048
Flags: HW
HStem: 0 21G<336 409> 167 65<114 512> 688 20G<296.697 385>
VStem: 336 73<0 390>
LayerCount: 2
Fore
SplineSet
308 708 m 1
 385 708 l 1
 114 232 l 1
 39 232 l 1
 308 708 l 1
39 232 m 1
 512 232 l 1
 512 167 l 1
 39 167 l 1
 39 232 l 1
336 390 m 1
 409 390 l 1
 409 0 l 1
 336 0 l 1
 336 390 l 1
EndSplineSet
EndChar

StartChar: five
Encoding: 53 53 82
Width: 550
VWidth: 1048
Flags: HW
HStem: -7 60<153.794 345.61> 387 60<195.499 348.902> 641 66<177 457>
VStem: 419 72<126.338 313.157>
LayerCount: 2
Fore
SplineSet
281 447 m 1
 376 447 491 375 491 224 c 0
 491 76 383 -7 253 -7 c 1
 146 -7 82 40 47 91 c 1
 96 129 l 1
 128 80 179 53 253 53 c 1
 338 53 419 98 419 220 c 0
 419 330 357 387 255 387 c 1
 208 387 172 372 151 351 c 1
 133 354 l 1
 158 420 215 447 281 447 c 1
107 707 m 1
 177 707 l 1
 151 351 l 1
 81 351 l 1
 107 707 l 1
173 707 m 1
 457 707 l 1
 457 641 l 1
 156 641 l 1
 173 707 l 1
EndSplineSet
EndChar

StartChar: six
Encoding: 54 54 83
Width: 550
VWidth: 1048
Flags: HW
HStem: -7 60<191.291 367.696> 435 60<196.817 364.676> 688 20G<285.246 386>
VStem: 46 72<134.193 352.913> 439 74<133.184 353.41>
LayerCount: 2
Fore
SplineSet
282 435 m 0
 178 435 118 358 118 255 c 0
 118 123 169 53 282 53 c 0
 396 53 439 132 439 246 c 0
 439 351 393 435 282 435 c 0
386 708 m 1
 152 435 l 1
 189 484 245 495 292 495 c 0
 420 495 513 403 513 246 c 0
 513 91 409 -7 282 -7 c 0
 130 -7 46 98 46 253 c 0
 46 341 60 415 142 517 c 0
 302 708 l 1
 386 708 l 1
EndSplineSet
EndChar

StartChar: seven
Encoding: 55 55 84
Width: 550
VWidth: 1048
Flags: HW
HStem: 0 21G<140 221.501> 647 61<46 488>
LayerCount: 2
Back
SplineSet
46 647 m 1xd0
 118 647 l 1
 118 519 l 1
 46 519 l 1
 46 647 l 1xd0
EndSplineSet
Fore
SplineSet
46 708 m 1
 488 708 l 1
 488 647 l 1
 46 647 l 1
 46 708 l 1
413 647 m 1
 488 647 l 1
 213 0 l 5
 140 0 l 5
 413 647 l 1
EndSplineSet
Colour: ff0000
EndChar

StartChar: eight
Encoding: 56 56 85
Width: 550
VWidth: 1048
Flags: HW
HStem: -7 61<181.928 371.387> 339 61<162 386> 654 61<192.482 358.11>
VStem: 48 74<113.548 276.87> 64 73<449.569 599.703> 412 73<449.691 600.056> 428 74<109.131 272.062>
LayerCount: 2
Fore
SplineSet
274 339 m 4xf2
 181 339 122 285 122 200 c 0
 122 86 195 54 274 54 c 0
 357 54 428 83 428 192 c 0
 428 279 369 339 274 339 c 4xf2
274 654 m 24
 196 654 137 611 137 520 c 0
 137 444 190 400 274 400 c 4
 359 400 412 444 412 521 c 0xec
 412 612 352 654 274 654 c 24
48 192 m 0xf2
 48 326 154 393 274 393 c 4
 394 393 502 326 502 192 c 0
 502 47 386 -7 274 -7 c 0
 162 -7 48 47 48 192 c 0xf2
64 521 m 0xec
 64 658 162 715 274 715 c 0
 386 715 485 658 485 521 c 0
 485 409 386 346 274 346 c 4
 162 346 64 409 64 521 c 0xec
EndSplineSet
EndChar

StartChar: nine
Encoding: 57 57 86
Width: 550
VWidth: 1048
Flags: HW
HStem: 1 21G<177 276.497> 214 60<186.324 354.183> 656 60<183.304 359.709>
VStem: 38 74<355.59 575.816> 433 72<356.087 574.807>
LayerCount: 2
Fore
SplineSet
269 274 m 0
 373 274 433 351 433 454 c 0
 433 586 382 656 269 656 c 0
 155 656 112 577 112 463 c 0
 112 358 158 274 269 274 c 0
177 1 m 1
 399 274 l 1
 362 225 306 214 259 214 c 0
 131 214 38 306 38 463 c 0
 38 618 142 716 269 716 c 0
 421 716 505 611 505 456 c 0
 505 368 488 294 409 192 c 0
 261 1 l 1
 177 1 l 1
EndSplineSet
EndChar

StartChar: colon
Encoding: 58 58 87
Width: 313
VWidth: 1048
Flags: HW
HStem: -8 121<108.453 204.14> 406 121<108.453 204.14>
VStem: 96 121<4.83948 99.7768 418.839 513.777>
LayerCount: 2
Fore
SplineSet
96 466 m 0
 96 499 119 527 156 527 c 0
 193 527 217 499 217 466 c 0
 217 433 193 406 156 406 c 0
 119 406 96 433 96 466 c 0
96 52 m 0
 96 85 119 113 156 113 c 0
 193 113 217 85 217 52 c 0
 217 19 193 -8 156 -8 c 0
 119 -8 96 19 96 52 c 0
EndSplineSet
EndChar

StartChar: semicolon
Encoding: 59 59 88
Width: 278
VWidth: 1048
Flags: HW
HStem: 406 121<91.4534 187.14>
VStem: 79 121<418.839 513.777>
LayerCount: 2
Fore
SplineSet
111 78 m 1
 183 78 l 1
 103 -144 l 1
 41 -144 l 1
 111 78 l 1
79 466 m 0
 79 499 102 527 139 527 c 0
 176 527 200 499 200 466 c 0
 200 433 176 406 139 406 c 0
 102 406 79 433 79 466 c 0
EndSplineSet
EndChar

StartChar: less
Encoding: 60 60 89
Width: 564
VWidth: 1048
Flags: HW
LayerCount: 2
Fore
SplineSet
64 328 m 5
 480 504 l 5
 508 442 l 5
 64 258 l 5
 64 328 l 5
64 299 m 5
 508 115 l 5
 480 53 l 5
 64 229 l 5
 64 299 l 5
EndSplineSet
EndChar

StartChar: equal
Encoding: 61 61 90
Width: 597
VWidth: 1048
Flags: HW
HStem: 156 65<77 497> 352 66<77 497>
LayerCount: 2
Fore
SplineSet
77 418 m 5
 497 418 l 5
 497 352 l 5
 77 352 l 5
 77 418 l 5
77 221 m 5
 497 221 l 5
 497 156 l 5
 77 156 l 5
 77 221 l 5
EndSplineSet
EndChar

StartChar: greater
Encoding: 62 62 91
Width: 609
VWidth: 1048
Flags: HW
LayerCount: 2
Fore
SplineSet
508 328 m 5
 508 258 l 5
 64 442 l 5
 92 504 l 5
 508 328 l 5
508 299 m 5
 508 229 l 5
 92 53 l 5
 64 115 l 5
 508 299 l 5
EndSplineSet
EndChar

StartChar: question
Encoding: 63 63 92
Width: 517
VWidth: 1048
Flags: HW
HStem: -8 121<190.453 286.14> 670 62<145.842 324.406>
VStem: 178 121<4.83948 99.7768> 191 64<189.701 316.882> 374 72<472.509 621.639>
LayerCount: 2
Fore
SplineSet
41 640 m 1xd8
 82 686 140 732 235 732 c 1
 364 732 446 667 446 544 c 1
 445 446 358 390 297 338 c 0
 256 303 255 272 255 234 c 1
 255 217 257 204 260 190 c 1
 197 182 l 1
 193 204 191 223 191 241 c 1
 191 316 227 362 274 397 c 0
 326 436 374 478 374 540 c 1
 374 634 319 670 235 670 c 1
 175 670 125 646 86 594 c 1
 41 640 l 1xd8
178 52 m 0xe8
 178 85 201 113 238 113 c 0
 275 113 299 85 299 52 c 0
 299 19 275 -8 238 -8 c 0
 201 -8 178 19 178 52 c 0xe8
EndSplineSet
EndChar

StartChar: at
Encoding: 64 64 93
Width: 954
Flags: HW
HStem: -96 64<365.844 644.443> -20 20G<639.5 667> 131 64<384.206 527.02> 513 64<411.227 560.92> 736 64<355.435 612.139>
VStem: 48 72<222.476 500.251> 265 72<246.734 428.914> 834 72<272.007 517.889>
LayerCount: 2
Fore
SplineSet
667 0 m 1
 667 -71 l 1
 614 -90 561 -96 492 -96 c 1
 243 -96 48 68 48 364 c 1
 48 655 269 800 484 800 c 1
 724 800 906 634 906 387 c 1
 906 282 868 194 811 139 c 1
 745 131 l 1
 571 229 l 1
 626 280 l 1
 771 195 l 1
 802 237 834 308 834 390 c 1
 834 606 677 736 484 736 c 1
 298 736 120 611 120 364 c 1
 120 130 278 -32 496 -32 c 1
 567 -32 612 -26 667 0 c 1
634 567 m 1
 690 567 l 1
 655 245 l 1
 582 242 l 1
 610 498 l 1
 634 567 l 1
665 370 m 1
 628 209 546 131 449 131 c 0
 344 131 265 206 265 320 c 0
 265 332 266 344 267 357 c 0
 281 482 374 577 489 577 c 0
 571 577 640 515 652 458 c 1
 665 370 l 1
485 513 m 0
 407 513 349 454 339 359 c 0
 338 347 337 336 337 325 c 0
 337 241 388 195 457 195 c 0
 542 195 585 265 595 358 c 0
 607 438 l 1
 588 484 539 513 485 513 c 0
EndSplineSet
EndChar

StartChar: gravecomb
Encoding: 768 768 95
Width: 0
VWidth: 1048
Flags: HW
HStem: 745 185
VStem: -123 247
AnchorPoint: "AccentCenter" 0 840 mark 0
LayerCount: 2
Fore
SplineSet
90 745 m 1
 -123 869 l 5
 -80 930 l 5
 124 794 l 1
 90 745 l 1
EndSplineSet
EndChar

StartChar: acutecomb
Encoding: 769 769 96
Width: 0
VWidth: 1048
Flags: HW
HStem: 745 185
VStem: -123 247
AnchorPoint: "AccentCenter" 6 840 mark 0
LayerCount: 2
Fore
SplineSet
-90 745 m 1
 -123 794 l 1
 80 930 l 1
 124 869 l 1
 -90 745 l 1
EndSplineSet
EndChar

StartChar: uni0302
Encoding: 770 770 97
Width: 0
VWidth: 1048
Flags: HW
HStem: 745 185
VStem: -164 328
AnchorPoint: "AccentCenter" 0 840 mark 0
LayerCount: 2
Fore
SplineSet
-164 794 m 29
 -33 930 l 5
 33 930 l 29
 164 794 l 29
 123 745 l 29
 0 865 l 29
 -123 745 l 29
 -164 794 l 29
EndSplineSet
EndChar

StartChar: tildecomb
Encoding: 771 771 98
Width: 0
VWidth: 1048
Flags: HW
HStem: 768 21G<-179.5 -154> 777 65<31.7338 126.19> 847 66<-125.06 -16.4801>
AnchorPoint: "AccentCenter" 0 840 mark 0
LayerCount: 2
Fore
SplineSet
-205 808 m 5xa0
 -205 808 -181 913 -63 913 c 4
 -2 913 33 842 84 842 c 4
 142 842 145 919 145 919 c 5
 205 878 l 5
 205 878 179 777 82 777 c 4x60
 7 777 -12 847 -70 847 c 4
 -145 847 -154 768 -154 768 c 5
 -205 808 l 5xa0
EndSplineSet
EndChar

StartChar: uni030A
Encoding: 778 778 100
Width: 0
VWidth: 1048
Flags: HW
HStem: 743 49<-40.634 40.634> 888 49<-40.634 40.634>
VStem: -97 49<798.991 881.009> 48 49<798.991 881.009>
AnchorPoint: "Ring" 0 840 mark 0
LayerCount: 2
Fore
SplineSet
-48 840 m 4
 -48 811 -27 792 0 792 c 4
 27 792 48 811 48 840 c 4
 48 869 27 888 0 888 c 4
 -27 888 -48 869 -48 840 c 4
-97 840 m 4
 -97 896 -54 937 0 937 c 4
 54 937 97 896 97 840 c 4
 97 784 54 743 0 743 c 4
 -54 743 -97 784 -97 840 c 4
EndSplineSet
EndChar

StartChar: uni0308
Encoding: 776 776 101
Width: 0
VWidth: 1048
Flags: HW
HStem: 805 104<-147.146 -61.5153 61.5153 147.146>
VStem: -157 105<814.515 899.485> 52 105<814.515 899.485>
AnchorPoint: "AccentCenter" 0 860 mark 0
LayerCount: 2
Fore
SplineSet
52 857 m 0
 52 886 75 909 104 909 c 0
 133 909 157 886 157 857 c 0
 157 828 133 805 104 805 c 0
 75 805 52 828 52 857 c 0
-157 857 m 0
 -157 886 -133 909 -104 909 c 0
 -75 909 -52 886 -52 857 c 0
 -52 828 -75 805 -104 805 c 0
 -133 805 -157 828 -157 857 c 0
EndSplineSet
EndChar

StartChar: dotlessi
Encoding: 305 305 116
Width: 313
VWidth: 1048
Flags: HW
HStem: 0 21G<135 209> 459 60<32 152>
VStem: 135 74<0 459> 135 17<459 519>
AnchorPoint: "AccentCenter" 157 694 basechar 0
LayerCount: 2
Fore
SplineSet
32 519 m 1xd0
 152 519 l 1
 152 459 l 1
 32 459 l 1
 32 519 l 1xd0
135 0 m 1xe0
 135 519 l 1xd0
 209 519 l 1
 209 0 l 1
 135 0 l 1xe0
EndSplineSet
EndChar

StartChar: sterling
Encoding: 163 163 153
Width: 601
Flags: HW
HStem: 0 64<64 537> 315 64<36 426> 655 60<257.163 431.493>
VStem: 122 72<427.944 597.314> 197 72<172.273 314.364>
LayerCount: 2
Fore
SplineSet
36 379 m 1
 426 379 l 1
 426 315 l 1
 36 315 l 1
 36 379 l 1
64 64 m 1
 537 64 l 1
 537 0 l 1
 64 0 l 1
 64 64 l 1
122 527 m 1
 122 615 189 715 339 715 c 0
 470 715 518 646 553 598 c 1
 502 558 l 0
 458 624 420 655 336 655 c 1
 264 655 194 606 194 527 c 0
 194 417 269 371 269 265 c 0
 269 147 206 92 158 64 c 1
 64 64 l 1
 64 80 l 1
 64 80 197 113 197 267 c 0
 197 353 122 420 122 527 c 1
EndSplineSet
EndChar

StartChar: AE
Encoding: 198 198 154
Width: 907
VWidth: 1048
Flags: HW
HStem: 0 61<492 851> 184 62<191 420> 350 66<492 773> 646 61<492 851>
AnchorPoint: "AccentCenter" 539 880 basechar 0
LayerCount: 2
Fore
SplineSet
492 416 m 1
 773 416 l 1
 773 350 l 1
 492 350 l 1
 492 416 l 1
492 61 m 1
 851 61 l 1
 851 0 l 1
 492 0 l 1
 492 61 l 1
492 707 m 1
 851 707 l 1
 851 646 l 1
 492 646 l 1
 492 707 l 1
420 707 m 1
 492 707 l 1
 492 0 l 1
 420 0 l 1
 420 707 l 1
191 246 m 1
 420 246 l 1
 420 184 l 1
 191 184 l 1
 191 246 l 1
373 707 m 1
 420 707 l 1
 427 666 l 1
 116 0 l 1
 40 0 l 1
 373 707 l 1
EndSplineSet
EndChar

StartChar: Euro
Encoding: 8364 8364 155
Width: 733
Flags: HW
HStem: -8 64<339.948 538.613> 235 64<32 423> 425 64<32 487> 651 64<334.99 530.978>
VStem: 134 72<258.49 422.227>
LayerCount: 2
Fore
SplineSet
32 299 m 1
 444 299 l 1
 423 235 l 1
 32 235 l 1
 32 299 l 1
32 489 m 1
 509 489 l 1
 487 425 l 1
 32 425 l 1
 32 489 l 1
436 715 m 1
 562 715 634 644 666 590 c 1
 609 557 l 1
 564 627 499 651 437 651 c 1
 291 651 206 542 206 360 c 1
 206 194 277 56 435 56 c 1
 532 56 582 94 629 162 c 1
 681 118 l 1
 628 46 564 -8 434 -8 c 1
 240 -8 134 157 134 362 c 0
 134 574 261 715 436 715 c 1
EndSplineSet
EndChar

StartChar: yen
Encoding: 165 165 156
Width: 627
VWidth: 1048
Flags: HW
HStem: 0 21G<279 352> 143 60<119 512> 298 60<119 276 279 284 347 352 355 512> 324 12<279 352> 687 20G<40 138.906 488.303 587>
VStem: 279 73<0 336>
AnchorPoint: "AccentCenter" 312 880 basechar 0
LayerCount: 2
Fore
SplineSet
119 203 m 1xcc
 512 203 l 1
 512 143 l 1
 119 143 l 1
 119 203 l 1xcc
119 358 m 1xec
 512 358 l 1
 512 298 l 1
 119 298 l 1
 119 358 l 1xec
279 336 m 1xdc
 352 336 l 1
 352 0 l 1
 279 0 l 1
 279 336 l 1xdc
276 324 m 1
 500 707 l 1
 587 707 l 1
 347 324 l 1
 276 324 l 1
40 707 m 1
 127 707 l 1
 355 324 l 1
 284 324 l 1
 40 707 l 1
EndSplineSet
EndChar

StartChar: ae
Encoding: 230 230 157
Width: 877
Flags: HW
HStem: -8 60<159.586 324.989 542.16 716.949> 242 62<161.402 396 469 753> 466 61<173.416 348.505 534.077 699.355>
VStem: 56 73<81.6253 211.941> 396 73<137 242 304 396> 753 68<304.492 405.487>
AnchorPoint: "AccentCenter" 289 686 basechar 0
LayerCount: 2
Fore
SplineSet
621 467 m 1
 514 467 469 396 469 304 c 1
 753 304 l 1
 753 318 l 1
 753 416 699 467 621 467 c 1
622 527 m 0
 731 527 821 447 821 307 c 1
 821 280 819 261 808 242 c 1
 469 242 l 1
 469 137 517 52 621 52 c 0
 688 52 735 73 772 124 c 1
 817 83 l 1
 761 23 712 -8 619 -8 c 0
 480 -8 396 98 396 261 c 0
 396 422 477 527 622 527 c 0
129 147 m 0
 129 84 165 52 240 52 c 0
 327 52 396 107 396 215 c 2
 396 242 l 1
 288 242 l 2
 180 242 129 226 129 147 c 0
434 163 m 1
 432 57 326 -8 236 -8 c 0
 125 -8 56 52 56 147 c 0
 56 252 134 304 274 304 c 2
 396 304 l 1
 396 346 l 2
 396 430 339 466 262 466 c 0
 202 466 159 444 128 404 c 1
 84 440 l 1
 117 494 185 527 264 527 c 0
 373 527 456 474 456 332 c 2
 469 178 l 1
 434 163 l 1
EndSplineSet
EndChar

StartChar: eth
Encoding: 240 240 158
Width: 596
Flags: HW
HStem: -8 60<213.701 383.066> 468 60<215.087 379.455> 687 28G<196 347.5 411.02 462>
VStem: 56 72<147.973 373.396> 468 72<144.647 391.253>
LayerCount: 2
Fore
SplineSet
202 605 m 1
 462 707 l 1
 462 650 l 1
 203 548 l 1
 202 605 l 1
128 266 m 0
 128 115 203 52 301 52 c 0
 396 52 468 124 468 255 c 0
 468 319 456 380 434 415 c 1
 392 450 342 468 297 468 c 0
 210 468 128 406 128 266 c 0
290 715 m 1
 405 641 540 495 540 259 c 1
 540 99 437 -8 300 -8 c 1
 159 -8 56 87 56 274 c 1
 56 412 152 528 285 528 c 1
 346 528 396 505 432 464 c 1
 397 553 280 672 196 715 c 1
 290 715 l 1
EndSplineSet
EndChar

StartChar: thorn
Encoding: 254 254 159
Width: 607
VWidth: 1048
Flags: HW
HStem: -8 61<216.565 390.628> 466 61<222.018 399.276>
VStem: 121 26<102 121.158> 478 73<148.478 376.539>
LayerCount: 2
Fore
SplineSet
88 -192 m 1
 160 -192 l 1
 160 708 l 1
 88 708 l 1
 88 -192 l 1
121 98 m 5
 137 57 199 -8 312 -8 c 1
 439 -8 551 87 551 258 c 1
 551 449 440 527 316 527 c 1
 201 527 137 448 117 401 c 5
 147 331 l 5
 147 409 224 466 312 466 c 1
 413 466 478 403 478 257 c 1
 478 124 402 53 308 53 c 1
 222 53 147 102 147 182 c 5
 121 98 l 5
EndSplineSet
EndChar

StartChar: currency
Encoding: 164 164 160
Width: 654
Flags: HW
HStem: -7 21G<82.4651 122 532 571.535> 22 60<246.147 407.853> 437 60<246.147 407.853> 508 20G<82.4651 122 532 571.535>
VStem: 95 60<174.102 345.712> 499 60<174.102 345.712>
LayerCount: 2
Fore
SplineSet
475 155 m 1
 594 36 l 1
 552 -7 l 1
 433 112 l 1
 475 155 l 1
221 112 m 1
 102 -7 l 1
 60 36 l 1
 179 154 l 1
 221 112 l 1
179 366 m 1
 60 485 l 1
 102 528 l 1
 221 409 l 1
 179 366 l 1
432 408 m 1
 552 528 l 1
 594 485 l 1
 474 366 l 1
 432 408 l 1
155 260 m 0
 155 162 232 82 327 82 c 0
 422 82 499 162 499 260 c 0
 499 358 422 437 327 437 c 0
 232 437 155 358 155 260 c 0
95 260 m 0
 95 391 199 497 327 497 c 0
 455 497 559 391 559 260 c 0
 559 129 455 22 327 22 c 0
 199 22 95 129 95 260 c 0
EndSplineSet
EndChar

StartChar: oslash
Encoding: 248 248 161
Width: 596
VWidth: 1048
Flags: HW
HStem: -8 60<214.414 380.138> 0 21G<56 159.231> 467 53<217.172 375.505>
VStem: 56 72<146.828 369.217> 468 72<149.015 366.999>
AnchorPoint: "AccentCenter" 295 686 basechar 0
LayerCount: 2
Fore
SplineSet
452 520 m 1x78
 540 520 l 1
 144 0 l 1
 56 0 l 1
 452 520 l 1x78
128 258 m 0
 128 121 204 52 296 52 c 0xb8
 388 52 468 121 468 258 c 0
 468 395 388 467 296 467 c 0
 204 467 128 395 128 258 c 0
56 261 m 0
 56 428 161 527 296 527 c 0
 431 527 540 428 540 261 c 0
 540 94 431 -8 296 -8 c 0
 170 -8 56 94 56 261 c 0
EndSplineSet
EndChar

StartChar: uni0327
Encoding: 807 807 163
Width: 0
Flags: HW
HStem: -224 56<-122 -45.053> -20 20G<-36 36>
VStem: -36 72<-158.892 0>
LayerCount: 2
Fore
SplineSet
-36 -107 m 1
 -36 0 l 1
 36 0 l 1
 36 -105 l 1
 36 -176 -10 -224 -89 -224 c 0
 -108 -224 -123 -221 -134 -217 c 1
 -122 -168 l 1
 -91 -168 l 2
 -56 -168 -36 -149 -36 -107 c 1
EndSplineSet
EndChar

StartChar: Thorn
Encoding: 222 222 164
Width: 557
Flags: HW
HStem: 0 21G<88 160> 151 60<121 367.184> 508 60<131 367.076> 688 20G<88 160>
VStem: 88 72<0 151 211 508 568 708> 121 39<151 211> 131 29<508 568> 429 72<273.311 445.212>
LayerCount: 2
Fore
SplineSet
131 568 m 1xf3
 288 568 l 1
 408 568 501 490 501 356 c 0
 501 236 405 151 282 151 c 1
 121 151 l 1
 121 211 l 1xf5
 282 211 l 1
 370 211 429 265 429 357 c 0
 429 448 376 508 288 508 c 1
 131 508 l 1
 131 568 l 1xf3
88 708 m 1xf9
 160 708 l 1
 160 0 l 1
 88 0 l 1
 88 708 l 1xf9
EndSplineSet
EndChar

StartChar: section
Encoding: 167 167 165
Width: 567
Flags: HW
HStem: -191 60<195.248 360.469> 708 60<207.957 376.991>
VStem: 56 72<251.735 391.128> 101 72<531.569 673.264> 403 72<-91.1941 49.4174> 439 72<185.904 323.828>
LayerCount: 2
Fore
SplineSet
367 152 m 1xe4
 408 166 439 199 439 251 c 0
 439 315 408 346 351 372 c 1
 205 431 l 1
 168 414 128 386 128 328 c 0
 128 262 150 242 198 222 c 9
 367 152 l 1xe4
132 -42 m 1
 152 -87 207 -131 270 -131 c 1
 362 -131 403 -90 403 -26 c 0
 403 43 360 85 302 111 c 1
 173 164 l 17xd8
 94 196 56 252 56 318 c 0xe0
 56 399 108 448 169 473 c 9
 169 473 101 530 101 610 c 0
 101 708 196 768 290 768 c 0
 383 768 440 728 481 669 c 1
 432 634 l 1
 401 678 355 708 297 708 c 0
 218 708 173 677 173 610 c 0
 173 543 210 501 263 478 c 1
 384 429 l 1
 464 394 511 342 511 255 c 1xd4
 511 180 458 138 409 111 c 1
 448 82 475 26 475 -26 c 1xc8
 475 -128 395 -191 268 -191 c 1
 159 -191 107 -134 73 -81 c 1
 132 -42 l 1
EndSplineSet
EndChar

StartChar: mu
Encoding: 181 181 166
Width: 586
VWidth: 1048
Flags: HW
HStem: 0 60<200.417 381.686 496 562> 499 20G<88 162 433 506>
VStem: 88 74<-191 519> 137 10<106 165.928> 433 73<27.5207 60 218 519> 496 10<0 60>
LayerCount: 2
Fore
SplineSet
496 60 m 1xc4
 562 60 l 1
 562 0 l 1
 496 0 l 1
 496 60 l 1xc4
433 258 m 1xc8
 506 258 l 1xc8
 506 0 l 1xc4
 444 0 l 1
 433 79 l 1
 433 258 l 1xc8
137 105 m 1xd8
 147 190 l 1
 147 106 210 53 300 53 c 0
 380 53 433 110 433 220 c 13
 433 519 l 1
 506 519 l 1
 506 218 l 0
 478 116 419 -7 306 -7 c 0
 214 -7 166 32 137 105 c 1xd8
88 -191 m 1xe0
 88 519 l 1
 162 519 l 1
 162 -191 l 1
 88 -191 l 1xe0
EndSplineSet
EndChar

StartChar: paragraph
Encoding: 182 182 167
Width: 543
Flags: HW
HStem: 0 60<444 511> 648 59<444 511>
VStem: 40 260<455.738 629.145> 228 72<0 372> 372 139<0 60 648 707>
LayerCount: 2
Fore
SplineSet
40 547 m 0xe8
 40 641 111 707 212 707 c 0
 300 707 l 1xd8
 300 544 l 1xe8
 300 372 l 1xd8
 300 372 215 372 212 372 c 0
 108 372 40 441 40 547 c 0xe8
228 372 m 5
 300 372 l 5
 300 0 l 1
 228 0 l 1
 228 372 l 5
444 60 m 1
 511 60 l 1
 511 0 l 1
 444 0 l 1
 444 60 l 1
444 707 m 1
 511 707 l 1
 511 648 l 1
 444 648 l 1
 444 707 l 1
372 707 m 1
 444 707 l 1
 444 0 l 1
 372 0 l 1
 372 707 l 1
EndSplineSet
EndChar

StartChar: cent
Encoding: 162 162 168
Width: 537
VWidth: 1048
Flags: HW
HStem: -8 60<214.414 378.819> 467 60<217.172 377.417>
VStem: 56 72<146.828 369.217> 259 72<-94 618>
LayerCount: 2
Fore
SplineSet
259 618 m 1
 331 618 l 1
 331 -94 l 1
 259 -94 l 1
 259 618 l 1
446 368 m 0
 416 433 359 467 296 467 c 0
 204 467 128 395 128 258 c 0
 128 121 204 52 296 52 c 0
 358 52 415 83 445 146 c 0
 503 109 l 0
 460 34 383 -8 296 -8 c 0
 170 -8 56 94 56 261 c 0
 56 428 161 527 296 527 c 0
 386 527 465 484 507 403 c 0
 507 403 446 369 446 368 c 0
EndSplineSet
EndChar

StartChar: exclamdown
Encoding: 161 161 169
Width: 298
VWidth: 1048
Flags: HW
HStem: 407 121<89.4534 185.14>
VStem: 77 121<420.223 515.161> 92 90<-196 226.912> 100 74<-146.912 276>
LayerCount: 2
Fore
SplineSet
92 -196 m 1xa0
 100 276 l 1
 174 276 l 1x90
 182 -196 l 1
 92 -196 l 1xa0
77 468 m 0xc0
 77 501 100 528 137 528 c 0
 174 528 198 501 198 468 c 0
 198 435 174 407 137 407 c 0
 100 407 77 435 77 468 c 0xc0
EndSplineSet
EndChar

StartChar: questiondown
Encoding: 191 191 170
Width: 517
VWidth: 1048
Flags: HW
HStem: -212 62<192.594 371.158> 407 121<230.86 326.547>
VStem: 71 72<-101.639 47.4911> 218 121<420.223 515.161> 262 64<203.118 330.299>
LayerCount: 2
Fore
SplineSet
476 -120 m 5xe8
 435 -166 377 -212 282 -212 c 5
 153 -212 71 -147 71 -24 c 5
 72 74 159 130 220 182 c 4
 261 217 262 248 262 286 c 5
 262 303 260 316 257 330 c 5
 320 338 l 5
 324 316 326 297 326 279 c 5
 326 204 290 158 243 123 c 4
 191 84 143 42 143 -20 c 5
 143 -114 198 -150 282 -150 c 5
 342 -150 392 -126 431 -74 c 5
 476 -120 l 5xe8
339 468 m 4xf0
 339 435 316 407 279 407 c 4
 242 407 218 435 218 468 c 4
 218 501 242 528 279 528 c 4
 316 528 339 501 339 468 c 4xf0
EndSplineSet
EndChar

